<svg xmlns="http://www.w3.org/2000/svg" role="img" viewBox="-10.23 -10.23 470.96 531.96"><title>video.svg</title><g fill-rule="evenodd"><path d="M440.58984 206.67578H99.41797l327.69922-94.92969c2.54687-.73828 4.69531-2.46093 5.97656-4.78125 1.28125-2.32421 1.58594-5.05859.84766-7.60546l-17.14844-59.19922C409.9414 16.51563 387.92578 0 363.2539 0c-5.19922 0-10.37891.73828-15.40235 2.1914L40.17578 91.32032c-14.23047 4.1211-26.02344 13.58203-33.21484 26.63281-7.1875 13.05079-8.875 28.07813-4.7539 42.3047l16.7539 57.83593v238.2539C18.96094 487.03516 43.92578 512 74.60938 512h120.16406c5.52344 0 10-4.47656 10-10s-4.47656-10-10-10H74.61328c-19.66015 0-35.65234-15.99219-35.65234-35.65234V320.26172H430.58984v136.08594C430.58984 476.0078 414.59766 492 394.9375 492H274.77344c-5.51953 0-10 4.47656-10 10s4.48047 10 10 10H394.9375c30.6875 0 55.65234-24.96484 55.65234-55.65234V216.67578c0-5.52344-4.47656-10-10-10zm-176.33203 93.58594l42.48828-73.58594h55.26172l-42.48437 73.58594zm-78.35937 0l42.48828-73.58594h55.26172l-42.48438 73.58594zm-78.35547 0l42.48437-73.58594h55.26563l-42.48828 73.58594zm37.17969-129.45703l-71.14844-68.33594 53.3086-15.4414c.375.54687.8125 1.0625 1.3125 1.54296l71.14843 68.33594-53.3086 15.4414c-.375-.54687-.8164-1.0664-1.3125-1.54296zm134-125.83985l71.14843 68.33594-53.30859 15.4414c-.375-.54687-.8125-1.0664-1.3125-1.54296l-71.14844-68.33594 53.3086-15.4414c.375.54687.8125 1.0625 1.3125 1.54296zm-75.26563 21.8047l71.14844 68.33202-53.3086 15.44531c-.375-.54687-.8125-1.0664-1.3125-1.54296l-71.14843-68.33594 53.3086-15.4414c.3789.54296.8164 1.0625 1.3125 1.54296zm149.96094-45.3672C356.6289 20.47266 359.9375 20 363.2539 20c15.82422 0 29.9375 10.57812 34.32812 25.72656l14.36719 49.58985-40.1211 11.62109c-.3789-.54688-.8164-1.0625-1.3164-1.54297L299.36719 37.0625zM24.48047 127.60156c4.60937-8.3711 12.16016-14.4336 21.26172-17.07031l5.875-1.70313c.3789.54688.8164 1.06641 1.3125 1.54297l71.14844 68.33594-88.29297 25.57813-14.3672-49.58985c-2.63671-9.09765-1.54687-18.71875 3.0625-27.09375zm14.48047 99.07422h87.97265l-42.48437 73.58594H38.96094zm303.65625 73.58594l42.48437-73.58594h45.48828v73.58594zm0 0"/><path d="M303.92188 405.11328c0-3.57422-1.90625-6.875-5-8.66016l-87.85547-50.72265c-3.09375-1.78516-6.90625-1.78516-10 0-3.09375 1.78515-5 5.08594-5 8.66015v101.44532c0 3.57031 1.90625 6.8711 5 8.65625 1.54687.89453 3.27343 1.34375 5 1.34375 1.72656 0 3.45312-.44922 5-1.34375l87.85547-50.71875c3.09375-1.78516 5-5.08594 5-8.66016zm-87.85547 33.40234v-66.80468l57.85547 33.40234zM234.77344 492c-5.50781 0-10 4.49219-10 10s4.49219 10 10 10c5.51172 0 10-4.49219 10-10s-4.48828-10-10-10zm0 0"/></g></svg>