<svg xmlns="http://www.w3.org/2000/svg" role="img" viewBox="-10.23 50.27 531.96 410.96"><title>slide-show.svg</title><g><path d="m494.5 60.514h-140.152c-4.143 0-7.5 3.357-7.5 7.5s3.357 7.5 7.5 7.5h140.152c1.379 0 2.5 1.121 2.5 2.5v45.526h-482v-45.526c0-1.379 1.122-2.5 2.5-2.5h302.325c4.143 0 7.5-3.357 7.5-7.5s-3.357-7.5-7.5-7.5h-302.325c-9.649 0-17.5 7.851-17.5 17.5v355.973c0 9.649 7.851 17.5 17.5 17.5h477c9.649 0 17.5-7.851 17.5-17.5v-355.973c0-9.65-7.851-17.5-17.5-17.5zm0 375.972h-477c-1.378 0-2.5-1.121-2.5-2.5v-295.446h482v295.446c0 1.379-1.121 2.5-2.5 2.5z"/><path d="M47.498 92.026c-.022 0-.044 0-.066 0-4.111 0-7.462 3.315-7.498 7.436-.036 4.142 3.292 7.528 7.435 7.564l.113.001h.066c4.111 0 7.462-3.315 7.498-7.436.036-4.142-3.292-7.528-7.435-7.564zM70.141 92.026c-.022 0-.044 0-.066 0-4.111 0-7.462 3.315-7.498 7.436-.036 4.142 3.292 7.528 7.435 7.564l.113.001h.066c4.111 0 7.462-3.315 7.498-7.436.036-4.142-3.292-7.528-7.435-7.564zM92.784 92.026c-.022 0-.044 0-.066 0-4.111 0-7.462 3.315-7.498 7.436-.036 4.142 3.292 7.528 7.435 7.564l.113.001h.066c4.111 0 7.462-3.315 7.498-7.436.036-4.142-3.292-7.528-7.435-7.564zM464.567 107.026c4.143 0 7.5-3.357 7.5-7.5s-3.357-7.5-7.5-7.5h-13.956c-4.143 0-7.5 3.357-7.5 7.5s3.357 7.5 7.5 7.5zM444.372 261.037c-3.035-2.817-7.781-2.642-10.599.396-2.818 3.036-2.641 7.781.396 10.599l6.743 6.259-6.743 6.259c-3.036 2.817-3.214 7.563-.396 10.599 1.478 1.593 3.485 2.398 5.499 2.398 1.825 0 3.656-.663 5.1-2.003l12.667-11.756c1.529-1.419 2.398-3.411 2.398-5.497s-.869-4.078-2.398-5.497z"/><path d="m450.16 238.88v-58.7c0-9.649-7.851-17.5-17.5-17.5h-195.306c-4.142 0-7.5 3.357-7.5 7.5s3.358 7.5 7.5 7.5h195.306c1.379 0 2.5 1.121 2.5 2.5v58.701c-18.55 3.523-32.623 19.849-32.623 39.41s14.073 35.886 32.623 39.41v25.461l-41.569-18.94c-6.606-3.011-14.495-1.583-19.629 3.549l-24.688 24.682c-.925.922-2.419.976-3.402.123l-50.854-43.977c-5.435-4.701-13.074-5.608-19.46-2.32l-31.069 16.004c-.898.465-1.98.343-2.754-.31l-64.277-54.129c-6.61-5.566-16.463-5.428-22.915.321l-77.703 69.245v-19.71c18.55-3.523 32.624-19.849 32.624-39.41s-14.074-35.886-32.624-39.41v-58.7c0-1.379 1.122-2.5 2.5-2.5h123.491c4.142 0 7.5-3.357 7.5-7.5s-3.358-7.5-7.5-7.5h-123.491c-9.649 0-17.5 7.851-17.5 17.5v58.701c-18.55 3.523-32.623 19.849-32.623 39.41s14.073 35.886 32.623 39.41v74.48c0 9.649 7.851 17.5 17.5 17.5h76.993c4.142 0 7.5-3.357 7.5-7.5s-3.358-7.5-7.5-7.5h-76.993c-1.378 0-2.5-1.121-2.5-2.5v-34.677l87.682-78.139c.923-.82 2.331-.841 3.274-.047l64.276 54.128c5.419 4.563 12.992 5.417 19.286 2.172l31.069-16.004c.915-.471 2.004-.339 2.779.331l50.854 43.977c3.28 2.836 7.362 4.239 11.438 4.239 4.502 0 8.995-1.714 12.383-5.101l24.688-24.682c.732-.732 1.857-.937 2.805-.506l47.788 21.774v32.535c0 1.379-1.121 2.5-2.5 2.5h-241.806c-4.142 0-7.5 3.357-7.5 7.5s3.358 7.5 7.5 7.5h241.804c9.649 0 17.5-7.851 17.5-17.5v-74.481c18.55-3.523 32.623-19.849 32.623-39.41s-14.073-35.886-32.623-39.41zm-405.943 39.41c0-13.853 11.27-25.123 25.123-25.123s25.124 11.271 25.124 25.123-11.271 25.123-25.124 25.123-25.123-11.27-25.123-25.123zm398.443 25.123c-13.853 0-25.123-11.271-25.123-25.123s11.271-25.123 25.123-25.123 25.123 11.271 25.123 25.123-11.27 25.123-25.123 25.123z"/><path d="M78.226 295.147c2.818-3.035 2.641-7.781-.395-10.599l-6.744-6.259 6.744-6.259c3.036-2.817 3.213-7.563.395-10.599-2.817-3.037-7.563-3.213-10.599-.396l-12.667 11.758c-1.529 1.419-2.398 3.411-2.398 5.497s.869 4.078 2.398 5.497l12.667 11.756c1.444 1.34 3.274 2.003 5.1 2.003 2.014 0 4.022-.806 5.499-2.399zM219 253.167h85.311c2.958 18.705 19.189 33.053 38.712 33.053 21.453 0 38.927-17.326 39.184-38.72h12.793c4.143 0 7.5-3.357 7.5-7.5s-3.357-7.5-7.5-7.5h-15.581c-5.783-14.442-19.912-24.674-36.395-24.674-18.567 0-34.149 12.981-38.176 30.341h-85.848c-4.142 0-7.5 3.357-7.5 7.5s3.358 7.5 7.5 7.5zm124.023-30.341c7.911 0 14.947 3.817 19.364 9.705-3.855.312-6.888 3.533-6.888 7.469 0 4.143 3.357 7.5 7.5 7.5h4.208c-.256 13.122-11.002 23.72-24.184 23.72-11.22 0-20.679-7.677-23.405-18.053h4.382c4.143 0 7.5-3.357 7.5-7.5s-3.357-7.5-7.5-7.5h-3.488c3.543-8.973 12.294-15.341 22.511-15.341z"/><path d="m283.25 230.735c4.143 0 7.5-3.357 7.5-7.5s-3.357-7.5-7.5-7.5h-23.5c-4.142 0-7.5 3.357-7.5 7.5s3.358 7.5 7.5 7.5z"/></g></svg>